HIERARCHY
ROOT Root
{
  OFFSET 0.0 0.0 0.0
  CHANNELS 6 Xposition Yposition Zposition Zrotation Yrotation Xrotation
  JOINT Hips
  {
    OFFSET 0.0 100.0 0.0
    CHANNELS 6 Xposition Yposition Zposition Zrotation Yrotation Xrotation
    JOINT Spine1
    {
      OFFSET -0.013727 5.003763 -0.053727
      CHANNELS 3 Zrotation Yrotation Xrotation
      JOINT Spine2
      {
        OFFSET -0.0 7.125301 -0.029825
        CHANNELS 3 Zrotation Yrotation Xrotation
        JOINT Chest
        {
          OFFSET -1e-06 7.550063 -0.815971
          CHANNELS 3 Zrotation Yrotation Xrotation
          JOINT Neck1
          {
            OFFSET -0.181677 26.311295 -0.553348
            CHANNELS 3 Zrotation Yrotation Xrotation
            JOINT Neck2
            {
              OFFSET -3e-06 7.709397 2.302585
              CHANNELS 3 Zrotation Yrotation Xrotation
              JOINT Head
              {
                OFFSET -5e-06 6.128916 1.953709
                CHANNELS 3 Zrotation Yrotation Xrotation
                JOINT HeadEnd
                {
                  OFFSET 0.003598 16.065403 -1.835379
                  CHANNELS 3 Zrotation Yrotation Xrotation
                }
                JOINT Jaw
                {
                  OFFSET 0.002637 0.475592 3.094941
                  CHANNELS 3 Zrotation Yrotation Xrotation
                }
                JOINT LeftEye
                {
                  OFFSET 3.206381 5.380205 7.586883
                  CHANNELS 3 Zrotation Yrotation Xrotation
                }
                JOINT RightEye
                {
                  OFFSET -3.22244 5.361869 7.558234
                  CHANNELS 3 Zrotation Yrotation Xrotation
                }
              }
            }
          }
          JOINT LeftShoulder
          {
            OFFSET 1.621652 23.237164 5.113413
            CHANNELS 3 Zrotation Yrotation Xrotation
            JOINT LeftArm
            {
              OFFSET 14.919846 2e-06 -5.502326
              CHANNELS 3 Zrotation Yrotation Xrotation
              JOINT LeftForeArm
              {
                OFFSET 28.739307 0.0 -0.002588
                CHANNELS 3 Zrotation Yrotation Xrotation
                JOINT LeftHand
                {
                  OFFSET 27.093981 -1e-06 0.002609
                  CHANNELS 3 Zrotation Yrotation Xrotation
                  JOINT LeftHandThumb1
                  {
                    OFFSET 2.276482 -1.392045 3.191413
                    CHANNELS 3 Zrotation Yrotation Xrotation
                    JOINT LeftHandThumb2
                    {
                      OFFSET 4.012836 -1.828127 1.641654
                      CHANNELS 3 Zrotation Yrotation Xrotation
                      JOINT LeftHandThumb3
                      {
                        OFFSET 2.798515 0.0 -3e-06
                        CHANNELS 3 Zrotation Yrotation Xrotation
                        JOINT LeftHandThumbEnd
                        {
                          OFFSET 3.180793 -4e-06 4e-06
                          CHANNELS 3 Zrotation Yrotation Xrotation
                        }
                      }
                    }
                  }
                  JOINT LeftHandIndex1
                  {
                    OFFSET 3.247555 -0.531998 2.296169
                    CHANNELS 3 Zrotation Yrotation Xrotation
                    JOINT LeftHandIndex2
                    {
                      OFFSET 6.364578 0.01206 0.1786
                      CHANNELS 3 Zrotation Yrotation Xrotation
                      JOINT LeftHandIndex3
                      {
                        OFFSET 3.662364 0.0 0.0
                        CHANNELS 3 Zrotation Yrotation Xrotation
                        JOINT LeftHandIndex4
                        {
                          OFFSET 2.329242 4e-06 4e-06
                          CHANNELS 3 Zrotation Yrotation Xrotation
                          JOINT LeftHandIndexEnd
                          {
                            OFFSET 2.759615 -0.180537 -0.113024
                            CHANNELS 3 Zrotation Yrotation Xrotation
                          }
                        }
                      }
                    }
                  }
                  JOINT LeftHandMiddle1
                  {
                    OFFSET 3.163495 0.240981 1.000332
                    CHANNELS 3 Zrotation Yrotation Xrotation
                    JOINT LeftHandMiddle2
                    {
                      OFFSET 6.19078 -0.259278 -1.002548
                      CHANNELS 3 Zrotation Yrotation Xrotation
                      JOINT LeftHandMiddle3
                      {
                        OFFSET 4.35652 -4e-06 -1e-06
                        CHANNELS 3 Zrotation Yrotation Xrotation
                        JOINT LeftHandMiddle4
                        {
                          OFFSET 2.996877 -8e-06 0.0
                          CHANNELS 3 Zrotation Yrotation Xrotation
                          JOINT LeftHandMiddleEnd
                          {
                            OFFSET 2.304287 -0.294569 -0.031741
                            CHANNELS 3 Zrotation Yrotation Xrotation
                          }
                        }
                      }
                    }
                  }
                  JOINT LeftHandRing1
                  {
                    OFFSET 2.882643 -0.053652 -0.322543
                    CHANNELS 3 Zrotation Yrotation Xrotation
                    JOINT LeftHandRing2
                    {
                      OFFSET 5.854541 -0.486202 -1.373841
                      CHANNELS 3 Zrotation Yrotation Xrotation
                      JOINT LeftHandRing3
                      {
                        OFFSET 4.350578 0.0 3e-06
                        CHANNELS 3 Zrotation Yrotation Xrotation
                        JOINT LeftHandRing4
                        {
                          OFFSET 2.651321 7e-06 2e-06
                          CHANNELS 3 Zrotation Yrotation Xrotation
                          JOINT LeftHandRingEnd
                          {
                            OFFSET 1.936105 0.077687 -7.1e-05
                            CHANNELS 3 Zrotation Yrotation Xrotation
                          }
                        }
                      }
                    }
                  }
                  JOINT LeftHandPinky1
                  {
                    OFFSET 2.8655 -0.310005 -1.600378
                    CHANNELS 3 Zrotation Yrotation Xrotation
                    JOINT LeftHandPinky2
                    {
                      OFFSET 5.087849 -1.331141 -1.77123
                      CHANNELS 3 Zrotation Yrotation Xrotation
                      JOINT LeftHandPinky3
                      {
                        OFFSET 3.070974 4e-06 0.0
                        CHANNELS 3 Zrotation Yrotation Xrotation
                        JOINT LeftHandPinky4
                        {
                          OFFSET 1.549672 0.0 1e-06
                          CHANNELS 3 Zrotation Yrotation Xrotation
                          JOINT LeftHandPinkyEnd
                          {
                            OFFSET 1.944893 -0.157802 0.057219
                            CHANNELS 3 Zrotation Yrotation Xrotation
                          }
                        }
                      }
                    }
                  }
                }
              }
            }
          }
          JOINT RightShoulder
          {
            OFFSET -1.380118 23.180309 5.214158
            CHANNELS 3 Zrotation Yrotation Xrotation
            JOINT RightArm
            {
              OFFSET -15.037196 1.2e-05 -5.545604
              CHANNELS 3 Zrotation Yrotation Xrotation
              JOINT RightForeArm
              {
                OFFSET -28.736639 2e-06 -0.002597
                CHANNELS 3 Zrotation Yrotation Xrotation
                JOINT RightHand
                {
                  OFFSET -27.133619 -0.0 0.002613
                  CHANNELS 3 Zrotation Yrotation Xrotation
                  JOINT RightHandThumb1
                  {
                    OFFSET -2.274032 -1.383988 3.163127
                    CHANNELS 3 Zrotation Yrotation Xrotation
                    JOINT RightHandThumb2
                    {
                      OFFSET -4.011429 -1.827466 1.640914
                      CHANNELS 3 Zrotation Yrotation Xrotation
                      JOINT RightHandThumb3
                      {
                        OFFSET -2.794935 -4e-06 -3e-06
                        CHANNELS 3 Zrotation Yrotation Xrotation
                        JOINT RightHandThumbEnd
                        {
                          OFFSET -3.183852 4e-06 1e-06
                          CHANNELS 3 Zrotation Yrotation Xrotation
                        }
                      }
                    }
                  }
                  JOINT RightHandIndex1
                  {
                    OFFSET -3.253266 -0.520057 2.282866
                    CHANNELS 3 Zrotation Yrotation Xrotation
                    JOINT RightHandIndex2
                    {
                      OFFSET -6.341917 0.012471 0.178266
                      CHANNELS 3 Zrotation Yrotation Xrotation
                      JOINT RightHandIndex3
                      {
                        OFFSET -3.654871 -8e-06 -0.0
                        CHANNELS 3 Zrotation Yrotation Xrotation
                        JOINT RightHandIndex4
                        {
                          OFFSET -2.327586 0.0 1e-06
                          CHANNELS 3 Zrotation Yrotation Xrotation
                          JOINT RightHandIndexEnd
                          {
                            OFFSET -2.76179 -0.180656 -0.113078
                            CHANNELS 3 Zrotation Yrotation Xrotation
                          }
                        }
                      }
                    }
                  }
                  JOINT RightHandMiddle1
                  {
                    OFFSET -3.168106 0.246593 1.00103
                    CHANNELS 3 Zrotation Yrotation Xrotation
                    JOINT RightHandMiddle2
                    {
                      OFFSET -6.180828 -0.258836 -1.000895
                      CHANNELS 3 Zrotation Yrotation Xrotation
                      JOINT RightHandMiddle3
                      {
                        OFFSET -4.348901 0.0 -0.0
                        CHANNELS 3 Zrotation Yrotation Xrotation
                        JOINT RightHandMiddle4
                        {
                          OFFSET -3.00024 -4e-06 -2e-06
                          CHANNELS 3 Zrotation Yrotation Xrotation
                          JOINT RightHandMiddleEnd
                          {
                            OFFSET -2.30252 -0.29437 -0.031706
                            CHANNELS 3 Zrotation Yrotation Xrotation
                          }
                        }
                      }
                    }
                  }
                  JOINT RightHandRing1
                  {
                    OFFSET -2.88569 -0.067952 -0.308858
                    CHANNELS 3 Zrotation Yrotation Xrotation
                    JOINT RightHandRing2
                    {
                      OFFSET -5.854198 -0.48613 -1.373731
                      CHANNELS 3 Zrotation Yrotation Xrotation
                      JOINT RightHandRing3
                      {
                        OFFSET -4.33881 -4e-06 -0.0
                        CHANNELS 3 Zrotation Yrotation Xrotation
                        JOINT RightHandRing4
                        {
                          OFFSET -2.654903 -4e-06 4e-06
                          CHANNELS 3 Zrotation Yrotation Xrotation
                          JOINT RightHandRingEnd
                          {
                            OFFSET -1.933568 0.077527 -5.2e-05
                            CHANNELS 3 Zrotation Yrotation Xrotation
                          }
                        }
                      }
                    }
                  }
                  JOINT RightHandPinky1
                  {
                    OFFSET -2.866425 -0.342796 -1.584145
                    CHANNELS 3 Zrotation Yrotation Xrotation
                    JOINT RightHandPinky2
                    {
                      OFFSET -5.091371 -1.332055 -1.772385
                      CHANNELS 3 Zrotation Yrotation Xrotation
                      JOINT RightHandPinky3
                      {
                        OFFSET -3.062664 -4e-06 1e-06
                        CHANNELS 3 Zrotation Yrotation Xrotation
                        JOINT RightHandPinky4
                        {
                          OFFSET -1.546529 4e-06 -2e-06
                          CHANNELS 3 Zrotation Yrotation Xrotation
                          JOINT RightHandPinkyEnd
                          {
                            OFFSET -1.945119 -0.157718 0.057211
                            CHANNELS 3 Zrotation Yrotation Xrotation
                          }
                        }
                      }
                    }
                  }
                }
              }
            }
          }
        }
      }
    }
    JOINT LeftLeg
    {
      OFFSET 10.043214 -8.434526 2.595655
      CHANNELS 3 Zrotation Yrotation Xrotation
      JOINT LeftShin
      {
        OFFSET -1e-06 -43.221752 -0.802913
        CHANNELS 3 Zrotation Yrotation Xrotation
        JOINT LeftFoot
        {
          OFFSET 1e-06 -42.155094 -3.481523
          CHANNELS 3 Zrotation Yrotation Xrotation
          JOINT LeftToeBase
          {
            OFFSET 0.0 -5.059472 13.231529
            CHANNELS 3 Zrotation Yrotation Xrotation
            JOINT LeftToeEnd
            {
              OFFSET -0.009607 -1.647619 6.513017
              CHANNELS 3 Zrotation Yrotation Xrotation
            }
          }
        }
      }
    }
    JOINT RightLeg
    {
      OFFSET -10.047278 -8.29526 2.620317
      CHANNELS 3 Zrotation Yrotation Xrotation
      JOINT RightShin
      {
        OFFSET 1e-06 -43.362206 -0.805556
        CHANNELS 3 Zrotation Yrotation Xrotation
        JOINT RightFoot
        {
          OFFSET 2e-06 -42.117393 -3.478398
          CHANNELS 3 Zrotation Yrotation Xrotation
          JOINT RightToeBase
          {
            OFFSET -0.0 -5.079609 13.284196
            CHANNELS 3 Zrotation Yrotation Xrotation
            JOINT RightToeEnd
            {
              OFFSET 0.009532 -1.634378 6.460591
              CHANNELS 3 Zrotation Yrotation Xrotation
            }
          }
        }
      }
    }
  }
}
MOTION
Frames: 4
Frame Time: 0.03333333333333333
0.0 0.0 0.0 0.0 -0.0 0.0 0.013422 100.307465 0.384064 0.212709 -1.435512 -0.535984 -0.173562 -0.036979 -2.432939 -0.515767 -0.384271 -6.062335 -1.386535 -1.827205 8.081467 3.389476 1.064687 0.145431 -0.279876 1.477592 -3.817673 3.041605 -0.824981 -5.176867 7.7e-05 -2.3e-05 6e-06 -0.027045 -0.031749 -0.057072 0.680303 -3.754673 -10.617571 -0.733231 3.690696 -10.616025 11.76246 -9.918322 7.507565 25.895397 -9.03948 -75.112404 -11.176024 -82.416046 8.427378 4.783411 -0.494903 11.1329 -5.882107 9.861283 0.702588 -10.936875 -0.360577 7.156201 2e-06 8.774824 -2e-06 -18.394161 18.098577 5.212844 -1.844034 2.498503 -2.507278 -10.163604 4.678943 4.621102 -20.976034 -9e-06 -2e-06 -21.226295 2.451691 -3.594002 1e-06 -6e-06 -0.0 -1.362682 2.240798 -0.746324 -21.334921 0.584903 3.008316 -13.821217 -7e-06 -1e-06 -23.887175 -0.249088 -0.839485 -62.050732 2.934023 -1.309884 -0.294024 1.679686 0.833256 -14.218215 0.093212 1.300576 -34.212067 -0.287575 0.967164 -20.033224 0.964528 1.212844 -0.0 -0.0 -0.0 -3.440389 0.78823 0.501654 -15.928192 -3.167312 2.999701 -6.338829 -4e-06 -1e-06 -18.123453 3.648178 -4.905673 -4e-06 -0.0 -2e-06 -15.186166 10.410988 5.369985 -25.039566 15.34335 -87.584167 9.889825 70.899406 8.085982 -9.290886 -0.892068 -3.050807 2.243544 -5.255041 -3.18016 14.282905 -0.826596 6.952506 -1e-06 -12.69061 -1e-06 17.44709 -16.322735 1.686712 1.665669 -1.955922 -2.878301 4.727804 -4.170591 4.993926 11.020538 2e-06 -1e-06 12.109064 -3.735718 -2.866788 0.0 -0.0 -0.0 1.291988 -1.928552 -1.49809 14.800144 0.567467 3.865609 14.242586 -1.341737 -6.660665 19.631987 0.143925 -0.648247 49.813263 -1.161207 -5.788139 0.35303 -1.51115 -0.03194 20.222811 3.684309 2.31663 18.787294 5e-06 -3e-06 10.751637 -0.479869 1.397906 1e-06 1e-06 0.0 3.273809 0.305946 -0.580111 21.486834 11.83038 2.266135 8.162937 0.0 -3e-06 18.399103 -3.798985 -4.940584 2e-06 0.0 -1e-06 1.682508 5.193816 0.495033 -0.011828 0.079076 4.430481 -3.193869 1.067757 -3.07487 1.659855 -1.845485 -0.190599 -0.0 -0.0 2e-06 -2.399395 -6.339106 -0.662191 -0.043849 0.022288 6.814377 4.072683 -2.825864 -6.110898 -1.391846 1.137591 -0.780006 0.0 0.0 -1e-06 
0.0 0.0 0.0 0.0 -0.0 0.0 -0.018919 100.350021 0.493203 0.169087 -1.414323 -0.300991 -0.131647 -0.015334 -2.445831 -0.496087 -0.310076 -6.059071 -1.450864 -1.818408 7.842847 3.552159 0.934547 -0.079795 -0.251666 1.530014 -3.847438 3.104306 -0.983899 -4.930956 7.7e-05 -2.3e-05 5e-06 -0.029675 -0.031842 -0.058358 0.673678 -3.74934 -10.603497 -0.732289 3.684757 -10.606881 12.625873 -10.083744 7.27706 29.099195 -7.343477 -76.594322 -6.122989 -75.964058 3.501334 4.483577 -0.909327 9.614911 -5.882108 9.861284 0.70259 -10.936877 -0.360577 7.156209 3e-06 8.774828 -1e-06 -18.270657 18.166275 5.23401 -1.844033 2.498505 -2.507279 -10.163603 4.678944 4.62111 -20.976034 -6e-06 2e-06 -21.226295 2.451694 -3.594 1e-06 -6e-06 0.0 -1.362683 2.240799 -0.746324 -21.334923 0.584907 3.008323 -13.821218 -5e-06 2e-06 -23.887178 -0.249082 -0.839482 -61.770168 2.980839 -1.345212 -0.294024 1.679687 0.833256 -14.218214 0.093213 1.300581 -34.212063 -0.287568 0.967171 -20.033222 0.964534 1.212846 1e-06 -1e-06 0.0 -3.44039 0.788232 0.501656 -15.928194 -3.167312 2.999708 -6.338829 -2e-06 1e-06 -18.123457 3.648183 -4.90567 -4e-06 -1e-06 -2e-06 -16.518475 10.598064 5.024535 -28.82049 13.342893 -88.439674 5.582088 63.456146 4.065883 -9.013614 -0.62375 -3.154135 2.243542 -5.255038 -3.180159 14.282896 -0.826593 6.952504 -2e-06 -12.690607 -1e-06 17.414337 -16.320076 1.727442 1.665667 -1.955922 -2.878299 4.7278 -4.170588 4.993925 11.02053 4e-06 -2e-06 12.109058 -3.735717 -2.866785 -1e-06 -0.0 0.0 1.291986 -1.92855 -1.498091 14.800134 0.567469 3.865608 14.242577 -1.341735 -6.660661 19.631973 0.143927 -0.648245 49.775711 -1.143258 -5.839945 0.353029 -1.511152 -0.03194 20.222797 3.684312 2.31663 18.787279 6e-06 -1e-06 10.751633 -0.479867 1.397906 -2e-06 -0.0 1e-06 3.273807 0.305945 -0.580111 21.48682 11.830379 2.266134 8.162931 0.0 -2e-06 18.399088 -3.798985 -4.940578 2e-06 -1e-06 -1e-06 1.70979 5.146024 0.538234 -0.00512 0.066093 3.971002 -3.154341 1.097578 -2.786282 1.663311 -1.854303 -0.224856 -0.0 -0.0 2e-06 -2.329369 -6.368663 -0.522523 -0.040272 0.01601 6.208773 4.119624 -2.871671 -5.858815 -1.392443 1.144447 -0.817218 0.0 0.0 -1e-06 
0.0 0.0 0.0 0.0 -0.0 0.0 -0.055697 100.40126 0.610777 0.123102 -1.40283 -0.066381 -0.090025 0.0016 -2.46435 -0.482523 -0.233982 -6.067819 -1.509816 -1.828141 7.626844 3.710348 0.825271 -0.288678 -0.218095 1.565867 -3.853962 3.161406 -1.104974 -4.63641 7.7e-05 -2.3e-05 6e-06 -0.032677 -0.03706 -0.059393 0.666807 -3.751051 -10.588438 -0.731685 3.675531 -10.597635 13.463001 -10.229186 7.070628 32.002983 -5.708474 -77.515991 -3.831822 -69.460442 1.357598 4.293797 -1.668545 8.354774 -5.882104 9.861281 0.702589 -10.936867 -0.360575 7.156204 0.0 8.774822 -1e-06 -18.126278 18.241531 5.277449 -1.844031 2.498505 -2.507277 -10.163595 4.678943 4.621107 -20.976013 -3e-06 2e-06 -21.226278 2.451695 -3.594 1e-06 -6e-06 0.0 -1.362681 2.240797 -0.746323 -21.334904 0.584907 3.008322 -13.821206 -3e-06 2e-06 -23.887157 -0.249078 -0.839482 -61.530567 3.025571 -1.396212 -0.294025 1.679686 0.833255 -14.218204 0.093215 1.300579 -34.212036 -0.287565 0.96717 -20.033205 0.964534 1.212844 -0.0 -0.0 1e-06 -3.440387 0.788233 0.501656 -15.928181 -3.16731 2.999706 -6.338825 0.0 0.0 -18.123444 3.648181 -4.905671 -5e-06 -0.0 -2e-06 -17.834448 10.835776 4.695258 -32.270016 11.317667 -88.699562 2.907769 56.190388 1.865076 -8.823522 -0.376982 -3.252065 2.243542 -5.255035 -3.180157 14.282894 -0.826594 6.9525 -2e-06 -12.690601 -0.0 17.344843 -16.339649 1.778114 1.665666 -1.955921 -2.878299 4.727799 -4.170586 4.993923 11.020529 3e-06 -1e-06 12.109055 -3.735715 -2.866785 0.0 -0.0 1e-06 1.291986 -1.92855 -1.498089 14.800131 0.567469 3.865605 14.242576 -1.341736 -6.660657 19.631973 0.143926 -0.648244 49.691185 -1.13071 -5.883501 0.353029 -1.511149 -0.031939 20.222794 3.684309 2.316629 18.78727 5e-06 0.0 10.75163 -0.479868 1.397905 -2e-06 0.0 1e-06 3.273807 0.305947 -0.58011 21.486816 11.830372 2.26613 8.162928 1e-06 -3e-06 18.399084 -3.798981 -4.940577 3e-06 -0.0 -2e-06 1.73924 5.129156 0.630493 0.003555 0.058672 3.430223 -3.095635 1.112873 -2.441363 1.666278 -1.85173 -0.261344 -0.0 -0.0 2e-06 -2.262951 -6.377736 -0.321588 -0.032837 0.011022 5.510157 4.159159 -2.921467 -5.575047 -1.393398 1.155028 -0.860135 0.0 0.0 -1e-06 
0.0 0.0 0.0 0.0 -0.0 0.0 -0.095419 100.451729 0.737653 0.0897 -1.407044 0.141998 -0.052768 0.00396 -2.480871 -0.479174 -0.161487 -6.081735 -1.566447 -1.83978 7.42492 3.830996 0.73147 -0.461621 -0.172602 1.613473 -3.853472 3.22124 -1.190432 -4.248714 7.7e-05 -2.3e-05 6e-06 -0.03433 -0.033362 -0.06525 0.658978 -3.74558 -10.576784 -0.727235 3.676728 -10.58926 14.252561 -10.345311 6.890566 34.583939 -4.216736 -78.036522 -2.60702 -63.1012 0.2406 4.273434 -2.693163 7.371785 -5.882108 9.861286 0.70259 -10.936875 -0.360575 7.156208 1e-06 8.774826 -1e-06 -18.038715 18.311838 5.27816 -1.844033 2.498505 -2.507279 -10.163604 4.678946 4.62111 -20.976034 -6e-06 2e-06 -21.226297 2.451695 -3.594 1e-06 -6e-06 -1e-06 -1.362683 2.240799 -0.746324 -21.334921 0.584907 3.008324 -13.821219 -4e-06 3e-06 -23.887182 -0.249079 -0.839483 -61.327164 3.062254 -1.436727 -0.294025 1.679687 0.833256 -14.218215 0.093213 1.300581 -34.212063 -0.287565 0.967172 -20.03322 0.964536 1.212846 0.0 0.0 -1e-06 -3.440389 0.788234 0.501656 -15.928198 -3.16731 2.999708 -6.338828 -2e-06 1e-06 -18.123455 3.648181 -4.905672 -4e-06 0.0 -2e-06 -19.088753 11.129962 4.383632 -35.369877 9.367292 -88.543839 1.146125 49.349739 0.68532 -8.716299 -0.157986 -3.465734 2.243543 -5.255041 -3.180159 14.282904 -0.826595 6.952505 -4e-06 -12.690612 -1e-06 17.292486 -16.384466 1.818944 1.665668 -1.955923 -2.878299 4.727803 -4.17059 4.993925 11.020536 3e-06 -1e-06 12.10906 -3.735719 -2.866785 0.0 1e-06 0.0 1.291987 -1.92855 -1.49809 14.800139 0.567469 3.865607 14.242584 -1.341736 -6.660661 19.631981 0.143927 -0.648245 49.626869 -1.122028 -5.944836 0.353029 -1.511151 -0.031941 20.222809 3.684313 2.316631 18.787287 5e-06 -1e-06 10.751637 -0.479868 1.397906 -2e-06 1e-06 1e-06 3.273809 0.305947 -0.58011 21.486834 11.830381 2.266134 8.162937 1e-06 -2e-06 18.399099 -3.798984 -4.94058 3e-06 0.0 -1e-06 1.760076 5.136592 0.743502 0.009431 0.048855 2.923012 -3.041395 1.144643 -2.11771 1.669611 -1.844794 -0.288068 0.0 -0.0 2e-06 -2.213106 -6.364081 -0.108811 -0.028383 0.007628 4.86494 4.193985 -2.97451 -5.325958 -1.395314 1.166415 -0.877054 -0.0 0.0 -1e-06 
